<svg width="50" height="20" viewBox="0 0 50 20" fill="none" xmlns="http://www.w3.org/2000/svg">
<path d="M17 19V17C17 15.9391 16.5786 14.9217 15.8284 14.1716C15.0783 13.4214 14.0609 13 13 13H5C3.93913 13 2.92172 13.4214 2.17157 14.1716C1.42143 14.9217 1 15.9391 1 17V19" stroke="#992C2C" stroke-width="2" stroke-linecap="round" stroke-linejoin="round"/>
<path d="M9 9C11.2091 9 13 7.20914 13 5C13 2.79086 11.2091 1 9 1C6.79086 1 5 2.79086 5 5C5 7.20914 6.79086 9 9 9Z" stroke="#992C2C" stroke-width="2" stroke-linecap="round" stroke-linejoin="round"/>
<path d="M33 19V17C33 15.9391 32.5786 14.9217 31.8284 14.1716C31.0783 13.4214 30.0609 13 29 13H21C19.9391 13 18.9217 13.4214 18.1716 14.1716C17.4214 14.9217 17 15.9391 17 17V19" stroke="#992C2C" stroke-width="2" stroke-linecap="round" stroke-linejoin="round"/>
<path d="M25 9C27.2091 9 29 7.20914 29 5C29 2.79086 27.2091 1 25 1C22.7909 1 21 2.79086 21 5C21 7.20914 22.7909 9 25 9Z" stroke="#992C2C" stroke-width="2" stroke-linecap="round" stroke-linejoin="round"/>
<path d="M49 19V17C49 15.9391 48.5786 14.9217 47.8284 14.1716C47.0783 13.4214 46.0609 13 45 13H37C35.9391 13 34.9217 13.4214 34.1716 14.1716C33.4214 14.9217 33 15.9391 33 17V19" stroke="#992C2C" stroke-width="2" stroke-linecap="round" stroke-linejoin="round"/>
<path d="M41 9C43.2091 9 45 7.20914 45 5C45 2.79086 43.2091 1 41 1C38.7909 1 37 2.79086 37 5C37 7.20914 38.7909 9 41 9Z" stroke="#992C2C" stroke-width="2" stroke-linecap="round" stroke-linejoin="round"/>
</svg>
