<svg xmlns="http://www.w3.org/2000/svg" xmlns:xlink="http://www.w3.org/1999/xlink" viewBox="0 0 279.76 147.88"><defs><style>.cls-1{isolation:isolate;}.cls-2{fill:url(#radial-gradient);}.cls-10,.cls-13,.cls-3,.cls-5,.cls-7,.cls-8{mix-blend-mode:multiply;}.cls-13,.cls-3{opacity:0.35;}.cls-3{fill:url(#linear-gradient);}.cls-4{fill:url(#linear-gradient-2);}.cls-19,.cls-5,.cls-7,.cls-8{fill:#bc6182;}.cls-5{opacity:0.75;}.cls-6{fill:url(#linear-gradient-3);}.cls-10,.cls-7{opacity:0.15;}.cls-8{opacity:0.2;}.cls-9{fill:url(#linear-gradient-4);}.cls-10{fill:#8e1613;}.cls-11{fill:url(#linear-gradient-5);}.cls-12{fill:#ffb64a;}.cls-13{fill:url(#linear-gradient-6);}.cls-14{fill:url(#linear-gradient-7);}.cls-15{fill:url(#linear-gradient-8);}.cls-16{fill:url(#linear-gradient-9);}.cls-17{fill:url(#linear-gradient-10);}.cls-18{fill:#ffcfa4;}</style><radialGradient id="radial-gradient" cx="-258.51" cy="79.78" r="97.92" gradientTransform="translate(414.8) scale(1.06 1)" gradientUnits="userSpaceOnUse"><stop offset="0" stop-color="#ffc488"/><stop offset="0.34" stop-color="#ffc086"/><stop offset="0.69" stop-color="#ffb47e"/><stop offset="1" stop-color="#ffa274"/></radialGradient><linearGradient id="linear-gradient" x1="264.32" y1="79.83" x2="241.64" y2="79.56" gradientUnits="userSpaceOnUse"><stop offset="0" stop-color="#8e1613"/><stop offset="1" stop-color="#ffa8a6"/></linearGradient><linearGradient id="linear-gradient-2" x1="237.8" y1="108.67" x2="261.94" y2="108.67" gradientTransform="translate(9.03 -4.36) rotate(5.54)" gradientUnits="userSpaceOnUse"><stop offset="0" stop-color="#ffa274"/><stop offset="1" stop-color="#ffc488"/></linearGradient><linearGradient id="linear-gradient-3" x1="246.81" y1="110.81" x2="254.17" y2="110.81" xlink:href="#linear-gradient-2"/><linearGradient id="linear-gradient-4" x1="246.8" y1="105.52" x2="261.94" y2="105.52" gradientTransform="translate(9.03 -4.36) rotate(5.54)" gradientUnits="userSpaceOnUse"><stop offset="0" stop-color="#ffc488"/><stop offset="1" stop-color="#ffa274"/></linearGradient><linearGradient id="linear-gradient-5" x1="237.8" y1="47.65" x2="271.47" y2="47.65" gradientTransform="translate(9.03 -4.36) rotate(5.54)" gradientUnits="userSpaceOnUse"><stop offset="0" stop-color="#ffa274"/><stop offset="0.37" stop-color="#ffc488"/><stop offset="0.68" stop-color="#ffa274"/><stop offset="1" stop-color="#bf7258"/></linearGradient><linearGradient id="linear-gradient-6" x1="14.96" y1="79.61" x2="38.03" y2="79.42" xlink:href="#linear-gradient"/><linearGradient id="linear-gradient-7" x1="-105.02" y1="141.91" x2="-80.88" y2="141.91" gradientTransform="matrix(-1, 0.1, 0.1, 1, -73.68, -4.36)" xlink:href="#linear-gradient-2"/><linearGradient id="linear-gradient-8" x1="-96.01" y1="144.05" x2="-88.65" y2="144.05" gradientTransform="matrix(-1, 0.1, 0.1, 1, -73.68, -4.36)" xlink:href="#linear-gradient-2"/><linearGradient id="linear-gradient-9" x1="-96.02" y1="138.75" x2="-80.88" y2="138.75" gradientTransform="matrix(-1, 0.1, 0.1, 1, -73.68, -4.36)" xlink:href="#linear-gradient-4"/><linearGradient id="linear-gradient-10" x1="-105.03" y1="80.54" x2="-71.36" y2="80.54" gradientTransform="matrix(-1, 0.1, 0.1, 1, -73.68, -4.36)" xlink:href="#linear-gradient-5"/></defs><g class="cls-1"><g id="Layer_2" data-name="Layer 2"><g id="Layer_1-2" data-name="Layer 1"><path class="cls-2" d="M268.07,11.68C255,13.8,240.92,15.39,226.3,16.56a39.83,39.83,0,0,1-4.15,4.52,15.31,15.31,0,0,1,.28-4.22l-2.89.2a48,48,0,0,1-4.92,7.17,27.82,27.82,0,0,1,1.09-6.9c-8.45.56-17,1-25.69,1.33-1.5,2.61-5.46,8.81-5.46,8.81s.71-5.49,1.17-8.67c-18.1.61-36.11.8-54.08.7-1.16,2.57-3.11,7-3.11,7s-1.48-4.64-2-7C110.82,19.33,95,19,79.4,18.21c-4.89,2.67-13.43,6.3-16.1-.93-18.14-1.21-35.62-3-51.61-5.6,20.13,135.45-42.13,146.39,65,129.92.46-1.31,1.85-8,1.85-8a41.38,41.38,0,0,0,2.09,7.72c3.9-.31,7.88-.57,11.88-.81.63-5.71,2.35-6.38,3-.18,14.65-.8,29.81-1.14,44.46-1.14,5.58-4.63,14-4,19.6.22,9.53.2,19.09.57,28.4,1.13a34.7,34.7,0,0,1,3-7.75s.79,2.31.27,8c2.1.14,4.18.28,6.25.44a8,8,0,0,1,1.77-3.62,5.78,5.78,0,0,1,1.07,3.85c4,.32,7.92.7,11.76,1.11,3.09-1.38,4.11-4.85,6.71-6.81,1.24-1.33,6-4.27,6.19-.91,1.37,2.74,1.22,6.42.41,9.37,13.82,2.26,42.61,10.19,42.71-7.49C268.09,136.65,259.37,55,268.07,11.68ZM225.25,124.77c-2.87,4.28-8.44,1.63-5.46-3.08C222.23,116.5,229.15,120.09,225.25,124.77Z"/><path class="cls-3" d="M268.07,11.68c-10.27,1.66-21.15,3-32.42,4.06,8.9,7.66,6.88,34.22,5.31,56.62-1.7,24.09-7,49.76-15.06,68.94a17,17,0,0,1-.52,2.84c13.82,2.26,42.61,10.19,42.71-7.49C268.09,136.65,259.37,55,268.07,11.68Z"/><path class="cls-4" d="M235,128.87c.72,6.52,8,11.7,14.41,12.32,6.4-.52,7.71-3.37,9.27-6.49,0,0,1-11.66,1.46-15s-21.92-8-22.94-2.23Z"/><path class="cls-5" d="M235,128.87c.72,6.52,8,11.7,14.41,12.32,6.4-.52,7.71-3.37,9.27-6.49,0,0,1-11.66,1.46-15s-21.5-8.32-22.53-2.57Z"/><path class="cls-6" d="M243.88,130.87c0,1.36,2,3.66,2,3.66s3.24,1.16,5.1-.37l.82-8.46-7.32-.71-.57,5.88Z"/><path class="cls-7" d="M268.07,11.68C255,13.8,240.92,15.39,226.3,16.56a39.83,39.83,0,0,1-4.15,4.52,15.31,15.31,0,0,1,.28-4.22l-2.89.2a48,48,0,0,1-4.92,7.17,27.82,27.82,0,0,1,1.09-6.9c-8.45.56-17,1-25.69,1.33-1.5,2.61-5.46,8.81-5.46,8.81s.71-5.49,1.17-8.67c-18.1.61-36.11.8-54.08.7-1.16,2.57-3.11,7-3.11,7s-1.48-4.64-2-7C110.82,19.33,95,19,79.4,18.21c-4.89,2.67-13.43,6.3-16.1-.93-18.14-1.21-35.62-3-51.61-5.6,7.5,50.51,3.56,83.7,1.2,104.62,2.32-20.61,11.84-51.5,5.85-97.48,9.41,1.33,19.9.87,31,1.05a2.69,2.69,0,0,0,.19.74,2.87,2.87,0,0,0,5.07.46,3.6,3.6,0,0,0,.56-1c1.53.07,3.07.15,4.62.26C61.45,22,62.35,24,63.65,25.43c.05.22.1.44.14.66.31,1.81.64,3.63.93,5.44s.51,3.73.81,5.59c.12.67.23,1.36.35,2,0-2.94-.08-5.87-.08-8.8-.1-1.19-.18-2.38-.31-3.56a4.85,4.85,0,0,0,2,.39l.2,0c.23,2.63.5,5.24.82,7.87.4,3.18.49,6.43.73,9.63s.51,6.42.73,9.63c0,.14,0,.28,0,.41.27,1.56.57,3.1.91,4.64.06.28.13.55.19.82.1-1.25.18-2.5.25-3.76-.06-.79-.12-1.57-.17-2.36-.22-3.21-.37-6.42-.57-9.63S70.05,38.16,70,35c0-2.81-.13-5.6-.26-8.4,3.37-1.36,7.89-4.94,11.36-6.68,4.69.22,9.81.58,15.13,1,.54.28.77.87,1.12,1.35a2.69,2.69,0,0,0,1.26,1,4.21,4.21,0,0,0,3.07-.28.6.6,0,0,0,.47-.2l.12-.06c.4-.19.79-.4,1.19-.58a2.1,2.1,0,0,1,1.58.66c1,1.07.87,2.89.85,4.23,0,2.62-.06,5.25-.06,7.88.11,1.29.15,2.6.17,3.9,0,1.6,0,3.2,0,4.8,0,1.08.11,2.15.17,3.23.11,1.73.24,3.46.37,5.18,0,.43.06.86.09,1.29.06-5,.17-10,.71-14.89a60.63,60.63,0,0,1,.27-10,17.28,17.28,0,0,1,.47-2.51c0-.21,0-.42,0-.63a4.82,4.82,0,0,1,.34-1,5.19,5.19,0,0,1,1.64-1.93c.44-.06.89-.08,1.33-.14a.55.55,0,0,0,.43-.29c4.34.24,8.68.41,12.93.46.44,1.46,3.33,12.59,3.33,12.59s3.77-10.1,4.54-13.15c.63,0,6.26-.06,13.7-.16a9.73,9.73,0,0,1,4-.28c.48.05,1,.12,1.45.2,11.5-.15,25.13-.37,31.75-.55-.11.83-1.36,14-1.82,18.76-.35,1.53-.71,3-1,4.59-.1.47.62.66.71.2.33-1.67.68-3.34,1.13-5,2.4-4.72,8.6-16.83,10-19.07l6.14-.28-.09.53c-.13.64-.34,1.27-.52,1.91s-.37,1.26-.56,1.89a10.24,10.24,0,0,0-.47,1.89c0,.19.25.23.34.09a10.68,10.68,0,0,0,.79-1.8c.23-.62.47-1.24.72-1.85s.47-1.24.77-1.83c.14-.3.31-.6.46-.9,6.32-.32,13.61-.69,13.61-.64L209.54,39l11.61-18.37L218.69,33.9s8.57-13,10.37-15.08c2-.17,4.06-.24,6.07-.23-.11.61-.21,1.23-.34,1.84-.2,1-.4,1.93-.62,2.89-.45,2-.82,3.94-1.25,5.91a.15.15,0,0,0,.29.08c.61-1.92,1.28-3.81,1.88-5.73.29-.94.6-1.88.91-2.82.23-.72.51-1.43.77-2.15,8.45.16,16.54,1.3,24,.24-6.18,43.55,6.67,111.62,7.32,117.8C268.09,136.65,259.37,55,268.07,11.68ZM98.76,21.45l0-.05a.39.39,0,0,0-.27-.26.42.42,0,0,0-.52.3,1.43,1.43,0,0,0,0,.29,9,9,0,0,0-.77-.75l1.61.12a.39.39,0,0,0,0,.26.35.35,0,0,0,.05.08Z"/><path class="cls-7" d="M252,144.9s-18.66-.47-23.41-3.71c-.07,0-.37-6.51-2.15-9.28a17.13,17.13,0,0,0-2.6-3.36,8.17,8.17,0,0,0,4.65-8.11c-.46-3.43-1.39-4.14-4.95-4.14s-8,4.64-5.14,11.64c-3.26,14.26-14.34,10.66-16,10.5-.57-1.22-1.48-12.46-1.48-12.46l-.24.38c.12-.8.25-1.6.39-2.39.19-1,.27-2.07.42-3.11a0,0,0,0,0-.08,0c-.39,1-.82,1.9-1.14,2.9s-.61,2-.9,3-.57,1.95-.78,2.94l-5.49,8.65c0-.17-.32-8.5-.5-14.33,0-.21.05-.43.07-.65.1-.91.18-1.81.26-2.72.22-2.25.44-4.5.61-6.75,0-.33.05-.66.07-1-.07-3.51,0-7,0-10.52-.08.23-.16.47-.25.71l0,.08c0,.46-.09.92-.14,1.37-.4,3.12-.84,6.24-1.29,9.36-.4,2.86-.73,5.72-1.07,8.58-.13,1.07-.25,2.14-.37,3.21-1.35,4.91-3,10.76-3.55,12.24-2.26-.12-4.85-.35-7.57-.62a1.52,1.52,0,0,0-.53-.63l-.08,0a1.92,1.92,0,0,0-.23-.19A6,6,0,0,1,178,136a2,2,0,0,1-.19-.22l-.11-.12c-.08-.1-.06-.09.05.06,0,0-.16-.23-.19-.27l-.17-.28a1.31,1.31,0,0,0-1.43-.54,2.1,2.1,0,0,0-.83-.48,1.39,1.39,0,0,0-1.32.32c.27-.26-.14.1-.21.17a2,2,0,0,0-.29.4c-.12.21-.23.44-.34.66a.75.75,0,0,0-.06.13,1.07,1.07,0,0,0-.46.46,2.32,2.32,0,0,0-.18.66,18,18,0,0,1-4.09-.44,4.38,4.38,0,0,1-.86-.37c-2-.16-4-.28-5.79-.33-3.65-2.24-8-5.86-12.33-5.86-4,0-8.84,3.61-12.11,5.76a1.47,1.47,0,0,0-.39-.22c.18.07.1.06,0,0s-.18-.18-.26-.27-.3-.36-.45-.54a6.12,6.12,0,0,0-.84-.92,2.5,2.5,0,0,0-2.86-.39,3.07,3.07,0,0,0-1.16,1.24,1.45,1.45,0,0,0-.52.43c-1.13.07-2.25.16-3.38.32-.74.1-1.49.21-2.23.34s-1.66.21-2.09,1a1,1,0,0,0-.11.36,9.74,9.74,0,0,1-2.58-.73c-2.07.06-4.13.14-6.17.22a.49.49,0,0,1-.54.32,14.32,14.32,0,0,0-3.4.09l-1.74.26a6.61,6.61,0,0,1-1.71.16,2.41,2.41,0,0,1-1.07-.47l-8.83.42c-1.26-2.76-1.58-11.76-2.9-11.76-2.2,0-3.43,12.28-3.43,12.28l-8.57.79L79,120.6c-.09-3.26-.3-6.52-.52-9.74-.1-1.48-.17-3-.23-4.44-.17-1.29-.32-2.59-.44-3.89-.15.65-.3,1.29-.46,1.93,0,2.21.05,4.43,0,6.65,0,2.63-.05,5.29,0,8-1,6.47-2.71,18-2.91,18.85q-5.33,1.07-10.25,1.88a3.67,3.67,0,0,1-1.43,1.06,5.64,5.64,0,0,1-2.35.24l-.07-.08A5.37,5.37,0,0,0,58,139.9a15.13,15.13,0,0,0-2.6-1,5.46,5.46,0,0,0-3.82.05,7.61,7.61,0,0,0-2.49,2.43,9.15,9.15,0,0,1-1.3,1.46,6.66,6.66,0,0,1-1.59.42,4.66,4.66,0,0,1-2.92-.63c-6.36.64-11.55,1-15.32,1.08-12.16.39-14-3.13-15.87-6.42a37.29,37.29,0,0,1-.39-9.27C10.14,151.42,18,150.62,76.66,141.6c.46-1.31,1.85-8,1.85-8a41.38,41.38,0,0,0,2.09,7.72c3.9-.31,7.88-.57,11.88-.81.63-5.71,2.35-6.38,3-.18,14.65-.8,29.81-1.14,44.46-1.14,5.58-4.63,14-4,19.6.22,9.53.2,19.09.57,28.4,1.13A37.54,37.54,0,0,1,190.8,133a.33.33,0,0,0,.21,0,24.27,24.27,0,0,1,.21,7.75c2.1.14,4.18.28,6.25.44a8,8,0,0,1,1.77-3.62,5.78,5.78,0,0,1,1.07,3.85c4,.32,7.92.7,11.76,1.11,3.09-1.38,4.11-4.85,6.71-6.81,1.24-1.33,6-4.27,6.19-.91,1.37,2.74,1.22,6.42.41,9.37,13.82,2.26,42.61,10.19,42.71-7.49C267.35,141.73,263,144.9,252,144.9Zm-32.19-23.21c2.44-5.19,9.36-1.6,5.46,3.08C222.38,129.05,216.81,126.4,219.79,121.69Z"/><path class="cls-7" d="M11.73,128c.22-3.21.62-6.87,1.08-11C12.29,121.7,11.91,125.18,11.73,128Z"/><path class="cls-7" d="M12.89,116.3h0s0,.09,0,.13S12.89,116.35,12.89,116.3Z"/><path class="cls-7" d="M179.88,135.06l.12,0a2,2,0,0,0,1.91,0,2,2,0,0,0,.92-1.15h0l.13-.31a1.32,1.32,0,0,0,0-.71c0-.06,0-.12,0-.17a3.49,3.49,0,0,0-.2-.44,3.58,3.58,0,0,0-.29-.39.57.57,0,0,0-.11-.11,2.51,2.51,0,0,0-.32-.25l-.08-.05a2.82,2.82,0,0,0-.45-.18l-.07,0a3.11,3.11,0,0,0-.44-.06h-.16a2.89,2.89,0,0,0-.5.08,3.17,3.17,0,0,0-.42.19,2.82,2.82,0,0,0-.39.29,2,2,0,0,0-.39.48,1.79,1.79,0,0,0-.24.59,2.3,2.3,0,0,0,0,1,1.9,1.9,0,0,0,.24.61A1.41,1.41,0,0,0,179.88,135.06Z"/><path class="cls-7" d="M122.05,133.31a.63.63,0,0,0,.16.26.6.6,0,0,0,.26.16.57.57,0,0,0,.31.07l.21,0a.82.82,0,0,0,.35-.2l.13-.16a.83.83,0,0,0,.1-.41,1.21,1.21,0,0,0,0-.19v-.1a1.45,1.45,0,0,0,0-.29c0-.12-.05-.24-.08-.36l-.08-.17a.49.49,0,0,0-.18-.2.38.38,0,0,0-.15-.09.66.66,0,0,0-.27-.06l-.19,0-.17.07a.41.41,0,0,0-.19.18.47.47,0,0,0-.13.24l-.09.36a1.45,1.45,0,0,0,0,.29.28.28,0,0,0,0,.09v.2A.64.64,0,0,0,122.05,133.31Z"/><path class="cls-7" d="M54.1,134.53a1.83,1.83,0,0,0,.13.16,1.12,1.12,0,0,0,.33.28,1.34,1.34,0,0,0,.39.16l.27,0a.81.81,0,0,0,.59-.24,1.19,1.19,0,0,0,.27-.46,1.21,1.21,0,0,0,0-.68,1.28,1.28,0,0,0-.58-.73,1,1,0,0,0-.35-.14,1.13,1.13,0,0,0-.63,0,.44.44,0,0,0-.15.08h0a.37.37,0,0,0-.14.07.72.72,0,0,0-.25.27l-.1.23a1.1,1.1,0,0,0,0,.51,1.12,1.12,0,0,0,.25.42Z"/><path class="cls-8" d="M243.88,130.87c0,1.36,2,3.66,2,3.66s3.24,1.16,5.1-.37l.82-8.46-7.32-.71-.57,5.88Z"/><path class="cls-9" d="M243.88,130.87c0-2.29,2-4.8,7.38-4.28,5.18,1.33,6.68,4.28,7.44,8.11l1.38-14.23c.38-3.92-14.58-6.3-15-1.46Z"/><path class="cls-10" d="M244.84,121.18l-.29,2.73c3-2.93,10.29-1.92,12,1a14.63,14.63,0,0,1-.55,3.78c1.51,1.29,2.07,3.74,2.68,5.79,0,0,1.15-10,1.41-14.25C260.09,120.14,245.23,118.17,244.84,121.18Z"/><path class="cls-11" d="M279.76,16.21a15.68,15.68,0,0,0-4.83-10.68c-1.21,1.82-2.73,3.46-4.05,5.21a.55.55,0,0,1-1-.42,49.85,49.85,0,0,1,1.9-7.25,19.34,19.34,0,0,0-2.52-1.3c-.28.72-.55,1.44-.77,2.18a.55.55,0,0,1-1.07-.15c0-.9,0-1.8.11-2.7-7.95-2.66-17.43-.62-20.84,7.33,1.46,18.64-.29,45.48-2,60.08-1.79,15.52-8.62,56.85-9.7,60.36a12.71,12.71,0,0,1,3.53-5,.45.45,0,0,1,0-.2,4.56,4.56,0,0,1,.81-1.58,10.82,10.82,0,0,1,.51-2.11.56.56,0,0,1,.67-.39l.13.07a.2.2,0,0,0,0-.08.56.56,0,0,1,.95,0,11.51,11.51,0,0,1,.75,1.64,4.15,4.15,0,0,1,.11.48,20,20,0,0,1,9.09-.37c8.15,1.25,16.21,5.94,16.47,15.33-.78-14,.21-50.36,1.78-67.06A361.35,361.35,0,0,1,279.76,16.21Z"/><path class="cls-12" d="M271.78,3.07a19.34,19.34,0,0,0-2.52-1.3c-.22.57-.43,1.15-.62,1.73A10.66,10.66,0,0,1,271.78,3.07Z"/><path class="cls-13" d="M47.58,16.06h0C35.07,14.94,23,13.51,11.69,11.68,30.43,137.8-22.25,156,56.86,144.58c-10.57-13.73-14-43.91-16.9-66.67C36.88,53.53,35.21,27.28,47.58,16.06Z"/><path class="cls-14" d="M38.73,131.22c-.06-.64.9-.7,1.07-.14.47,1.52,1.08,3,1.68,4.46a11.92,11.92,0,0,0,3.26-6.67l-2.2-11.45c-1-5.74-23.37-1.17-22.94,2.23s1.46,15,1.46,15c1.56,3.12,2.86,6,9.26,6.49a18.11,18.11,0,0,0,9-3.67Q39,134.37,38.73,131.22Z"/><path class="cls-5" d="M38.73,131.22c-.06-.64.9-.7,1.07-.14.47,1.52,1.08,3,1.68,4.46a11.92,11.92,0,0,0,3.26-6.67l-2.2-11.45c-1-5.74-23.37-1.17-22.94,2.23s1.46,15,1.46,15c1.56,3.12,2.86,6,9.26,6.49a18.11,18.11,0,0,0,9-3.67Q39,134.37,38.73,131.22Z"/><path class="cls-15" d="M35.88,130.87c0,1.36-2,3.66-2,3.66s-3.23,1.16-5.09-.37L28,125.7l7.32-.71.57,5.88Z"/><path class="cls-8" d="M35.88,130.87c0,1.36-2,3.66-2,3.66s-3.23,1.16-5.09-.37L28,125.7l7.32-.71.57,5.88Z"/><path class="cls-16" d="M35.88,130.87c0-2.29-2-4.8-7.39-4.28-5.18,1.33-6.67,4.28-7.43,8.11l-1.38-14.23c-.38-3.92,14.58-6.3,15-1.46Z"/><path class="cls-10" d="M34.73,119c.12,1.18.48,4.94.48,4.94-2.66-2.42-10.37-2-12.08,1a14.73,14.73,0,0,0,.54,3.78c-1.5,1.29-2.06,3.74-2.67,5.79l-1.41-14.25S34.34,116,34.73,119Z"/><path class="cls-17" d="M35,68.51c-1.68-14.6-3.43-41.44-2-60.08A13.52,13.52,0,0,0,24.31.78c-.23,0-.46.12-.7.15A6.53,6.53,0,0,1,21.33.68a3.65,3.65,0,0,0-1.08,0h0l-.12.07c-.51.34-1,.79-1.51,1.13s-1.27.56-1.7-.06A2.41,2.41,0,0,1,16.7.11a20.54,20.54,0,0,0-11,4.64c.14,2,.3,3.94.3,5.91,0,.73-1,.68-1.09,0A31.07,31.07,0,0,0,4,6.39a15.67,15.67,0,0,0-4,9.82A362.5,362.5,0,0,1,9.88,69.59C11.46,86.29,11,123.37,11.69,136c-.16-3,1.31-4.48,2.81-7.5,0-.15-.07-.3-.1-.45a8.11,8.11,0,0,1-.23-1.62,2.36,2.36,0,0,1,.33-1.32,3,3,0,0,1,.81-.89.89.89,0,0,1,.94-.06,1.24,1.24,0,0,1,.48.72,4.52,4.52,0,0,1,.13,1.17,23.26,23.26,0,0,1,11.28-4.69,26.79,26.79,0,0,1,4.2-.34,12.88,12.88,0,0,1,1.94-1.34,2.57,2.57,0,0,1,1.32-.36,1.08,1.08,0,0,1,.19,0,.68.68,0,0,1,.28.07,2.29,2.29,0,0,1,.71.43,6.91,6.91,0,0,1,1,1.17l1,1.29a11.93,11.93,0,0,1,6,6.6C44.09,125.5,36.83,84,35,68.51Z"/><path class="cls-18" d="M258.7,134.7c-.89-2.88-2.12-6.08-5.82-7.3s-6.61,0-7.83,1.58-1.1,3.42.94,5.44a6.54,6.54,0,0,0,5-.26c-1.49,1.47-4.14,1.08-5.1.78a4.77,4.77,0,0,1-1.21-6.34c1.39-1.94,4.2-3,8.3-1.73C256.85,128.09,258.5,132,258.7,134.7Z"/><path class="cls-18" d="M21.08,134.81c.89-2.89,2.11-6.08,5.81-7.31s6.69-.12,7.91,1.45,1,3.56-1,5.57a6.44,6.44,0,0,1-5-.26c1.49,1.47,4.14,1.09,5.09.79a5,5,0,0,0,1.2-6.52c-1.39-2-4.18-2.83-8.28-1.55C22.92,128.2,21.27,132.09,21.08,134.81Z"/><path class="cls-18" d="M268,135c-.49-7-8.06-12.8-16-13.72a31.44,31.44,0,0,0-9.49.21c-.5-2.09-2.87-5.73-3.94,2.42a16.67,16.67,0,0,0-3.53,4.76c1.59-2,2.3-3.55,4.33-4.68-.1-2.94,1.3-6.61,2.74-1.92,3.16-.64,10-.09,13.82,1A18.86,18.86,0,0,1,268,135Z"/><path class="cls-18" d="M11.75,134.5a12.45,12.45,0,0,1,2.75-6c-.94-2.58-.25-4.33,1-4.68.63-.17,1.69.42,1.33,2.23,2.86-2.6,8.77-5.18,15.08-4.73,2.68-3.16,5.11-3.35,6.77,1a9.77,9.77,0,0,1,6,6.6A13,13,0,0,0,38,122.73c-.59-2-2.37-4.27-5.81-.71-3.28,0-10.4.66-15.81,5.34.51-4-1.86-4.3-1.19,1A17,17,0,0,0,11.75,134.5Z"/><path class="cls-19" d="M117.5,26.94a.07.07,0,0,0,0,.14A.07.07,0,0,0,117.5,26.94Z"/><path class="cls-7" d="M32.79,12.77h0c.07-1.49.16-2.94.27-4.34A13.52,13.52,0,0,0,24.31.78c-.23,0-.46.12-.7.15A6.53,6.53,0,0,1,21.33.68a3.65,3.65,0,0,0-1.08,0h0l-.12.07c-.51.34-1,.79-1.51,1.13s-1.27.56-1.7-.06A2.41,2.41,0,0,1,16.7.11a20.54,20.54,0,0,0-11,4.64c.14,2,.3,3.94.3,5.91,0,.73-1,.68-1.09,0A31.07,31.07,0,0,0,4,6.39a15.67,15.67,0,0,0-4,9.82q.55,2.07,1.08,4.17h0a15,15,0,0,1,2.39-7.94C4.12,14.72,7,21.74,7,21.74s.94-9.13,1.42-13.35C13.11,5.76,19,4.59,24,5.83c0,3.36.29,6.74.32,10.11,0,4.13-.11,8.27.25,12.39a.18.18,0,0,0,.36,0c.37-4.12.24-8.26.29-12.39,0-3.2.31-6.42.37-9.63A12.73,12.73,0,0,1,32.79,12.77Z"/><path class="cls-7" d="M42.47,116c-2-2.57-5.44-3.83-9.31-4.1-.14-.52-.28-1-.39-1.56-.41-1.89-.73-3.8-1-5.72s-.59-4.06-.82-6.1-.58-3.86-.77-5.79c0-.11-.18-.11-.17,0,0,1-.1,2.08,0,3.12s.14,1.79.23,2.67c.18,1.9.4,3.78.67,5.66s.6,3.83.92,5.74c.11.62.19,1.27.28,1.93a27.64,27.64,0,0,0-5.32.42c-.22-1.88-.51-3.74-.84-5.6,0-.11-.18-.08-.18,0,.05,1.92.15,3.81.31,5.72-6.1,1.21-11.93,4.27-14.24,8.15l-.44.75c0,7.12,0,11.57.36,14.84.1-3.58,1.25-4.63,2.8-7.65,0-.15-.07-.3-.1-.45a8.11,8.11,0,0,1-.23-1.62,2.36,2.36,0,0,1,.33-1.32,3,3,0,0,1,.81-.89.89.89,0,0,1,.94-.06,1.24,1.24,0,0,1,.48.72,4.52,4.52,0,0,1,.13,1.17,23.26,23.26,0,0,1,11.28-4.69,26.79,26.79,0,0,1,4.2-.34,12.88,12.88,0,0,1,1.94-1.34,2.57,2.57,0,0,1,1.32-.36,1.08,1.08,0,0,1,.19,0,.68.68,0,0,1,.28.07,2.29,2.29,0,0,1,.71.43,6.91,6.91,0,0,1,1,1.17l1,1.29a11.93,11.93,0,0,1,6,6.6C44.42,127.83,42.47,116,42.47,116Z"/><path class="cls-7" d="M267.82,123.8a14.73,14.73,0,0,0-7-7.54,2.25,2.25,0,0,1-1.17-2.18c.1-1.12.23-2.54.29-3.26.11-1.4.08-2.76.3-4.15,0,0-.05-.06-.06,0-.26,1.29-.72,2.51-1,3.79-.1.52-.24,1.38-.36,2.23a2.1,2.1,0,0,1-2.7,1.7c-7.69-2.23-16.51-1-18.9,3-.91,5.17-1.91,10.5-2.2,11.45a12.71,12.71,0,0,1,3.53-5,.45.45,0,0,1,0-.2,4.56,4.56,0,0,1,.81-1.58,10.82,10.82,0,0,1,.51-2.11.56.56,0,0,1,.67-.39l.13.07a.2.2,0,0,0,0-.08.56.56,0,0,1,.95,0,11.51,11.51,0,0,1,.75,1.64,4.15,4.15,0,0,1,.11.48,20,20,0,0,1,9.09-.37c8.15,1.25,16.21,5.94,16.47,15.33C267.92,133.65,267.82,123.8,267.82,123.8Z"/><path class="cls-7" d="M279.76,16.21a15.68,15.68,0,0,0-4.83-10.68c-.29.43-.6.86-.92,1.28-.06.09-.13.17-.2.26-1,1.24-2,2.43-2.93,3.67a.55.55,0,0,1-1-.42,49.85,49.85,0,0,1,1.9-7.25c-.31-.2-.64-.37-1-.55-.5-.26-1-.52-1.55-.75-.28.72-.55,1.44-.77,2.18a.55.55,0,0,1-1.07-.15c0-.9,0-1.8.11-2.7-7.95-2.66-17.43-.62-20.84,7.33.11,1.45.2,3,.28,4.51h0c1.08-3.26,5.11-6.07,10-7.07a2,2,0,0,1,2.38,2.2v0l-.33,3.07a30.67,30.67,0,0,0,0,3.18.07.07,0,0,0,.14,0c.22-.95.56-1.85.71-2.82s.28-2.06.41-3.09c0-.18.05-.36.08-.55a2.61,2.61,0,0,1,2.9-2.27,17.82,17.82,0,0,1,5.31,1.52l-1.92,12.69L274.1,9.34c3.49,2,4.94,6.2,4.71,10.51C279.12,18.63,279.44,17.41,279.76,16.21Z"/><path class="cls-7" d="M266.42,28.42c-.88,4-1.2,8.16-1.92,12.21s-1.34,8.13-1.93,12.2c-1.17,8-2.22,16.09-3,24.18-.45,4.59-.73,9.19-1.17,13.78,0,.21.3.21.32,0,.85-8.14,2.12-16.22,3.09-24.35s1.83-16.2,2.86-24.29c.3-2.36.59-4.72.95-7.07s.76-4.42,1-6.64A.08.08,0,0,0,266.42,28.42Z"/><path class="cls-7" d="M22.62,79.85c-.34-3.48-.58-7-.88-10.47-.6-6.91-1.14-13.82-1.67-20.73-.3-4-.44-7.92-.78-11.87a.1.1,0,0,0-.2,0c-.06,3.54.14,7.09.25,10.63s.25,6.92.45,10.38c.4,7,1.11,14,1.87,21,.43,3.88.81,7.77,1.51,11.62,0,.24.45.19.43-.06C23.39,86.81,23,83.34,22.62,79.85Z"/><path class="cls-7" d="M56.19,24A1.79,1.79,0,0,0,55,25.29a2,2,0,0,0,.4,1.76l.14.11a1.5,1.5,0,0,0,.42.34,2,2,0,0,0,2.77-1.71A2,2,0,0,0,56.19,24Z"/><path class="cls-19" d="M55,127.18a.05.05,0,1,0,0,.1A.05.05,0,0,0,55,127.18Z"/></g></g></g></svg>